<?xml version="1.0" standalone="no"?><!DOCTYPE svg PUBLIC "-//W3C//DTD SVG 1.1//EN" "http://www.w3.org/Graphics/SVG/1.1/DTD/svg11.dtd"><svg t="1532507827934" class="icon" style="" viewBox="0 0 1024 1024" version="1.1" xmlns="http://www.w3.org/2000/svg" p-id="7142" xmlns:xlink="http://www.w3.org/1999/xlink" width="32" height="32"><defs><style type="text/css"></style></defs><path d="M445.877023 64.460104c-210.894198 0-382.464785 170.875762-382.464785 380.891963 0 209.984479 171.570587 380.824425 382.464785 380.824425 210.899314 0 382.455575-170.839947 382.455575-380.824425C828.332598 235.334843 656.765081 64.460104 445.877023 64.460104L445.877023 64.460104zM445.877023 775.088954c-182.605921 0-331.157235-147.931191-331.157235-329.755306 0-181.857884 148.551314-329.783958 331.157235-329.783958 182.603875 0 331.195098 147.944494 331.195098 329.783958C777.060865 627.170043 628.480898 775.088954 445.877023 775.088954L445.877023 775.088954zM951.430194 912.569118 817.650305 783.742031c-9.809413-9.425673-26.670429-9.207709-36.234249 0.566912-4.779863 4.901637-7.309476 11.349489-7.222495 18.153452 0.112564 6.841825 2.87856 13.219069 7.814989 17.949814l133.745097 128.876206c4.825912 4.618181 11.166317 7.189749 17.84953 7.189749 6.976902 0 13.528108-2.756787 18.420535-7.773034C961.843358 938.570305 961.597765 922.357042 951.430194 912.569118L951.430194 912.569118zM951.430194 912.569118" p-id="7143" fill="#999999"></path></svg>